<svg width="24.166626" height="19.333252" viewBox="0 0 24.1666 19.3333" fill="none" xmlns="http://www.w3.org/2000/svg" xmlns:xlink="http://www.w3.org/1999/xlink">
	<desc>
			Created with Pixso.
	</desc>
	<defs/>
	<path id="Vector" d="M21.75 0L2.41 0C1.08 0 0 1.08 0 2.41L0 16.91C0 18.24 1.08 19.33 2.41 19.33L21.75 19.33C23.07 19.33 24.16 18.24 24.16 16.91L24.16 2.41C24.16 1.08 23.07 0 21.75 0ZM21.26 5.13L13.36 10.07C12.57 10.57 11.58 10.57 10.8 10.07L2.9 5.13C2.59 4.94 2.41 4.61 2.41 4.26C2.41 3.45 3.29 2.97 3.98 3.39L12.08 8.45L20.17 3.39C20.86 2.97 21.75 3.45 21.75 4.26C21.75 4.61 21.56 4.94 21.26 5.13Z" fill="#1C1C1C" fill-opacity="1.000000" fill-rule="nonzero"/>
</svg>
