<svg width="24.000000" height="18.000000" viewBox="0 0 24 18" fill="none" xmlns="http://www.w3.org/2000/svg" xmlns:xlink="http://www.w3.org/1999/xlink">
	<defs/>
	<path id="Vector" d="M21.6 0L2.4 0C1.07 0 0 1.01 0 2.25L0 15.75C0 16.98 1.07 18 2.4 18L21.6 18C22.92 18 24 16.98 24 15.75L24 2.25C24 1.01 22.92 0 21.6 0ZM2.4 1L21.6 1Q21.79 1 21.97 1.04Q22.06 1.06 22.16 1.1Q22.33 1.17 22.48 1.28Q22.54 1.33 22.61 1.39Q22.76 1.53 22.86 1.72Q22.88 1.75 22.89 1.78Q22.95 1.91 22.98 2.04Q23 2.14 23 2.25L23 15.75Q23 15.85 22.98 15.95Q22.95 16.08 22.89 16.21Q22.88 16.24 22.86 16.27Q22.76 16.46 22.61 16.6Q22.54 16.66 22.48 16.71Q22.33 16.82 22.16 16.89Q22.06 16.93 21.97 16.95Q21.79 17 21.6 17L2.4 17Q2.2 17 2.02 16.95Q1.93 16.93 1.83 16.89Q1.66 16.82 1.51 16.71Q1.45 16.66 1.38 16.6Q1.23 16.46 1.13 16.27Q1.11 16.24 1.1 16.21Q1.04 16.08 1.01 15.95Q1 15.85 1 15.75L1 2.25Q1 2.14 1.01 2.04Q1.04 1.91 1.1 1.78Q1.11 1.75 1.13 1.72Q1.23 1.53 1.38 1.39Q1.45 1.33 1.51 1.28Q1.66 1.17 1.83 1.1Q1.93 1.06 2.02 1.04Q2.2 1 2.4 1Z" fill="#000000" fill-opacity="1.000000" fill-rule="evenodd"/>
	<path id="Vector" d="M22.84 1.06L12 9.93L1.15 1.06" stroke="#000000" stroke-opacity="1.000000" stroke-width="1.000000" stroke-linejoin="round" stroke-linecap="round"/>
</svg>
