<svg width="17.002686" height="16.000000" viewBox="0 0 17.0027 16" fill="none" xmlns="http://www.w3.org/2000/svg" xmlns:xlink="http://www.w3.org/1999/xlink">
	<defs/>
	<path id="Vector" d="M3.85 16L3.85 5.2L0.21 5.2L0.21 16L3.85 16ZM2.03 3.72C3.3 3.72 4.09 2.9 4.09 1.86C4.07 0.8 3.3 0 2.06 0C0.81 0 0 0.8 0 1.86C0 2.9 0.79 3.72 2.01 3.72L2.03 3.72L2.03 3.72ZM5.87 16L9.52 16L9.52 9.97C9.52 9.64 9.54 9.32 9.64 9.09C9.9 8.45 10.5 7.78 11.51 7.78C12.83 7.78 13.35 8.77 13.35 10.22L13.35 16L17 16L17 9.81C17 6.49 15.2 4.95 12.8 4.95C10.84 4.95 9.97 6.03 9.49 6.77L9.52 6.77L9.52 5.2L5.87 5.2C5.92 6.21 5.87 15.99 5.87 15.99L5.87 16Z" fill="#000000" fill-opacity="1.000000" fill-rule="nonzero"/>
</svg>
