<svg width="16.916656" height="23.526123" viewBox="0 0 16.9167 23.5261" fill="none" xmlns="http://www.w3.org/2000/svg" xmlns:xlink="http://www.w3.org/1999/xlink">
	<desc>
			Created with Pixso.
	</desc>
	<defs/>
	<path id="Vector" d="M8.45 0C3.78 0 0 3.78 0 8.45C0 13.49 5.34 20.44 7.54 23.09C8.02 23.67 8.9 23.67 9.38 23.09C11.57 20.44 16.91 13.49 16.91 8.45C16.91 3.78 13.13 0 8.45 0ZM8.45 11.47C6.79 11.47 5.43 10.12 5.43 8.45C5.43 6.79 6.79 5.43 8.45 5.43C10.12 5.43 11.47 6.79 11.47 8.45C11.47 10.12 10.12 11.47 8.45 11.47Z" fill="#1C1C1C" fill-opacity="1.000000" fill-rule="nonzero"/>
</svg>
