<svg width="115.001007" height="43.992001" viewBox="0 0 115.001 43.992" fill="none" xmlns="http://www.w3.org/2000/svg" xmlns:xlink="http://www.w3.org/1999/xlink">
	<desc>
			Created with Pixso.
	</desc>
	<defs/>
	<path id="Vector" d="M0 25.44L0 0.33L3.22 0.33L3.22 22.17L12.13 22.17L12.13 25.44L0 25.44ZM21.01 0.33L21.01 25.44L17.78 25.44L17.78 0.33L21.01 0.33ZM49 3.76C51.49 6.27 52.74 9.3 52.74 12.85C52.74 16.4 51.49 19.43 49 21.94C46.51 24.45 43.5 25.7 39.98 25.7C36.46 25.7 33.45 24.45 30.95 21.94C28.46 19.43 27.22 16.4 27.22 12.85C27.22 9.3 28.46 6.27 30.96 3.76C33.45 1.25 36.46 0 39.98 0C43.5 0 46.51 1.25 49 3.76ZM39.98 3.28C37.35 3.28 35.11 4.21 33.25 6.08C31.4 7.95 30.47 10.2 30.47 12.85C30.47 15.5 31.4 17.76 33.26 19.63C35.12 21.5 37.36 22.44 39.98 22.44C42.61 22.44 44.85 21.5 46.7 19.63C48.56 17.76 49.48 15.5 49.48 12.85C49.48 10.2 48.56 7.95 46.7 6.08C44.85 4.21 42.61 3.28 39.98 3.28ZM58.64 0.33L61.58 0.33L71.87 18.25L71.87 0.33L75.11 0.33L75.11 25.44L72.29 25.44L61.86 7.29L61.86 25.44L58.64 25.44L58.64 0.33ZM84.91 0.33L84.91 25.44L81.69 25.44L81.69 0.33L84.91 0.33ZM110.8 19.46L113.22 21.64C110.27 24.35 107.15 25.71 103.85 25.71C100.33 25.71 97.33 24.46 94.85 21.96C92.36 19.45 91.12 16.43 91.12 12.88C91.12 9.35 92.36 6.32 94.85 3.81C97.33 1.3 100.33 0.04 103.85 0.04C107.15 0.04 110.27 1.4 113.22 4.11L110.8 6.32C108.58 4.33 106.26 3.34 103.85 3.34C101.25 3.34 99.02 4.27 97.16 6.13C95.31 8 94.38 10.25 94.38 12.88C94.38 15.53 95.31 17.78 97.16 19.65C99.02 21.51 101.25 22.44 103.85 22.44C106.26 22.44 108.58 21.45 110.8 19.46ZM52.97 40.86L56.32 40.86L56.32 41.54L52.24 41.54L52.24 34.31L52.97 34.31L52.97 40.86ZM57.53 39.33C57.55 39.57 57.61 39.79 57.71 40C57.89 40.41 58.21 40.74 58.62 40.91C58.82 41 59.04 41.05 59.28 41.05C59.64 41.05 59.95 40.96 60.21 40.8C60.47 40.63 60.66 40.44 60.8 40.22L61.32 40.65C61.03 41.01 60.72 41.27 60.38 41.42C60.03 41.58 59.66 41.66 59.28 41.66C58.93 41.66 58.6 41.6 58.3 41.47C58 41.34 57.74 41.17 57.52 40.95C57.3 40.71 57.13 40.44 57.01 40.15C56.88 39.83 56.82 39.49 56.82 39.15C56.82 38.79 56.89 38.45 57.01 38.15C57.13 37.84 57.3 37.58 57.51 37.35C57.73 37.13 57.98 36.95 58.27 36.82C58.56 36.7 58.88 36.64 59.22 36.64C59.58 36.64 59.9 36.7 60.18 36.83C60.46 36.96 60.7 37.13 60.89 37.35C61.09 37.56 61.23 37.81 61.34 38.1C61.44 38.39 61.49 38.7 61.49 39.03L61.49 39.33L57.53 39.33ZM60.76 38.78C60.76 38.32 60.62 37.96 60.35 37.67C60.08 37.39 59.7 37.25 59.22 37.25C59 37.25 58.79 37.29 58.59 37.38C58.39 37.46 58.21 37.58 58.06 37.72C57.91 37.86 57.78 38.02 57.69 38.21C57.6 38.39 57.55 38.58 57.55 38.78L60.76 38.78ZM63.07 42.5C63.26 42.76 63.52 42.97 63.83 43.13C64.15 43.29 64.5 43.37 64.88 43.37C65.22 43.37 65.51 43.32 65.74 43.23C65.96 43.14 66.16 43 66.32 42.82C66.46 42.65 66.57 42.45 66.63 42.23C66.69 42 66.73 41.75 66.73 41.5L66.73 40.64L66.71 40.64C66.49 40.97 66.23 41.2 65.92 41.33C65.61 41.47 65.27 41.54 64.93 41.54C64.59 41.54 64.27 41.48 63.97 41.35C63.67 41.24 63.41 41.06 63.18 40.85C62.96 40.63 62.78 40.38 62.65 40.08C62.52 39.77 62.46 39.44 62.46 39.11C62.46 38.76 62.52 38.44 62.64 38.14C62.77 37.84 62.93 37.58 63.15 37.35C63.36 37.13 63.61 36.95 63.91 36.82C64.2 36.7 64.52 36.64 64.87 36.64C65.01 36.64 65.17 36.65 65.32 36.68C65.67 36.74 66 36.88 66.27 37.1C66.43 37.22 66.57 37.37 66.71 37.56L66.73 37.56L66.73 36.76L67.4 36.76L67.4 41.5C67.4 41.75 67.36 42.03 67.3 42.32C67.24 42.62 67.11 42.88 66.93 43.13C66.72 43.39 66.45 43.6 66.15 43.74C65.82 43.91 65.39 43.99 64.85 43.99C64.38 43.99 63.96 43.91 63.59 43.75C63.2 43.58 62.85 43.34 62.57 43.03L63.07 42.5ZM63.19 39.09C63.19 39.57 63.37 40.03 63.7 40.38C63.86 40.54 64.05 40.68 64.26 40.78C64.47 40.88 64.7 40.92 64.95 40.92C65.43 40.93 65.89 40.74 66.23 40.42C66.4 40.26 66.53 40.07 66.62 39.84C66.71 39.62 66.76 39.37 66.75 39.09C66.75 38.83 66.71 38.6 66.63 38.38C66.55 38.16 66.43 37.96 66.27 37.79C66.11 37.62 65.92 37.49 65.7 37.4C65.47 37.29 65.21 37.24 64.95 37.25C64.7 37.25 64.47 37.3 64.26 37.4C63.94 37.54 63.66 37.78 63.47 38.08C63.28 38.38 63.19 38.73 63.19 39.09ZM71.94 38.61L71.94 38.48C71.94 37.66 71.53 37.25 70.72 37.25C70.17 37.25 69.68 37.43 69.27 37.81L68.87 37.33C69.31 36.87 69.98 36.64 70.87 36.64C71.1 36.64 71.33 36.67 71.54 36.74C71.75 36.81 71.93 36.91 72.09 37.05C72.25 37.19 72.37 37.36 72.47 37.58C72.56 37.79 72.61 38.04 72.61 38.33L72.61 40.46C72.61 40.65 72.62 40.84 72.63 41.04C72.65 41.24 72.67 41.41 72.69 41.54L72.04 41.54C72.02 41.41 72 41.29 71.99 41.16C71.98 41.03 71.98 40.89 71.98 40.76L71.96 40.76C71.76 41.08 71.53 41.31 71.26 41.45C71 41.59 70.67 41.66 70.29 41.66C70.08 41.66 69.87 41.63 69.68 41.57C69.49 41.52 69.31 41.43 69.16 41.31C69 41.18 68.87 41.03 68.78 40.84C68.69 40.66 68.65 40.46 68.65 40.26C68.65 39.87 68.75 39.57 68.95 39.35C69.16 39.12 69.42 38.95 69.7 38.85C70 38.74 70.32 38.68 70.67 38.65C71.01 38.62 71.32 38.61 71.6 38.61L71.94 38.61ZM71.59 39.16C71.42 39.16 71.21 39.17 70.96 39.18C70.71 39.2 70.47 39.24 70.23 39.31C70.01 39.36 69.81 39.47 69.63 39.61C69.55 39.68 69.48 39.76 69.44 39.86C69.4 39.96 69.38 40.06 69.38 40.17C69.38 40.33 69.42 40.46 69.48 40.57C69.54 40.68 69.63 40.78 69.74 40.85C69.85 40.92 69.97 40.97 70.1 41C70.23 41.03 70.36 41.05 70.5 41.05C70.74 41.05 70.95 41.01 71.13 40.92C71.31 40.84 71.46 40.73 71.58 40.59C71.71 40.45 71.8 40.28 71.85 40.1C71.91 39.91 71.94 39.72 71.94 39.5L71.94 39.16L71.59 39.16ZM74.98 41.54L74.31 41.54L74.31 33.82L74.98 33.82L74.98 41.54ZM83.05 35.5C82.73 35.03 82.27 34.8 81.66 34.8C81.47 34.8 81.28 34.82 81.1 34.88C80.92 34.92 80.76 35 80.61 35.11C80.45 35.22 80.33 35.37 80.24 35.55C80.16 35.72 80.12 35.91 80.13 36.11C80.13 36.43 80.22 36.69 80.4 36.87C80.58 37.05 80.81 37.2 81.08 37.31C81.35 37.43 81.65 37.53 81.97 37.62C82.29 37.71 82.59 37.84 82.85 37.99C83.13 38.14 83.35 38.34 83.53 38.6C83.72 38.85 83.81 39.19 83.81 39.63C83.81 39.95 83.74 40.25 83.6 40.51C83.47 40.77 83.28 40.99 83.05 41.17C82.83 41.35 82.57 41.48 82.29 41.58C82.02 41.67 81.73 41.72 81.45 41.72C81.01 41.72 80.59 41.64 80.19 41.47C79.79 41.29 79.44 41.01 79.19 40.65L79.86 40.17C80.01 40.43 80.23 40.65 80.5 40.81C80.78 40.97 81.1 41.05 81.48 41.05C81.66 41.05 81.85 41.02 82.03 40.96C82.21 40.9 82.37 40.82 82.52 40.7C82.66 40.59 82.78 40.45 82.88 40.29C82.97 40.13 83.02 39.94 83.02 39.73C83.02 39.48 82.96 39.27 82.86 39.1C82.75 38.93 82.61 38.79 82.45 38.68C82.26 38.57 82.06 38.47 81.86 38.4C81.63 38.33 81.4 38.25 81.18 38.18C80.95 38.1 80.72 38.02 80.5 37.92C80.28 37.83 80.09 37.71 79.91 37.56C79.73 37.41 79.59 37.22 79.5 37.01C79.39 36.79 79.34 36.51 79.34 36.18C79.34 35.83 79.4 35.53 79.54 35.27C79.66 35.02 79.84 34.8 80.06 34.62C80.28 34.45 80.53 34.33 80.81 34.25C81.08 34.16 81.37 34.12 81.66 34.12C82.06 34.12 82.43 34.19 82.76 34.32C83.09 34.45 83.4 34.68 83.69 35L83.05 35.5ZM89.84 39.15C89.84 39.51 89.78 39.84 89.65 40.15C89.53 40.45 89.36 40.72 89.13 40.95C88.9 41.17 88.63 41.35 88.33 41.47C88.03 41.6 87.69 41.66 87.31 41.66C86.95 41.66 86.61 41.6 86.31 41.47C86.01 41.35 85.74 41.17 85.51 40.95C85.29 40.72 85.11 40.45 84.99 40.15C84.86 39.83 84.8 39.49 84.8 39.15C84.8 38.79 84.86 38.45 84.99 38.15C85.11 37.84 85.29 37.58 85.51 37.35C85.73 37.13 86 36.95 86.31 36.82C86.63 36.7 86.97 36.63 87.32 36.64C87.69 36.64 88.03 36.7 88.33 36.82C88.64 36.95 88.91 37.13 89.13 37.35C89.35 37.58 89.53 37.84 89.65 38.15C89.78 38.45 89.84 38.79 89.84 39.15L89.84 39.15ZM89.11 39.15C89.11 38.89 89.07 38.64 88.98 38.4C88.86 38.06 88.64 37.76 88.34 37.55C88.04 37.34 87.68 37.24 87.32 37.25C87.04 37.25 86.79 37.3 86.57 37.4C86.35 37.5 86.16 37.63 86.01 37.8C85.86 37.97 85.74 38.17 85.66 38.4C85.57 38.63 85.53 38.88 85.53 39.15C85.53 39.41 85.57 39.66 85.66 39.89C85.74 40.12 85.86 40.33 86.01 40.49C86.16 40.67 86.35 40.8 86.57 40.9C86.79 41 87.04 41.05 87.32 41.05C87.59 41.05 87.84 41 88.06 40.9C88.28 40.8 88.47 40.67 88.62 40.49C88.78 40.33 88.9 40.12 88.98 39.89C89.07 39.66 89.11 39.41 89.11 39.15ZM91.88 41.54L91.21 41.54L91.21 33.82L91.88 33.82L91.88 41.54ZM96.91 41.54C96.9 41.41 96.89 41.28 96.89 41.15C96.88 41.03 96.88 40.9 96.88 40.77L96.86 40.77C96.79 40.9 96.69 41.02 96.58 41.13C96.46 41.24 96.34 41.33 96.19 41.41C96.05 41.49 95.9 41.55 95.74 41.59C95.58 41.64 95.43 41.66 95.27 41.66C94.66 41.66 94.21 41.5 93.92 41.17C93.63 40.85 93.49 40.39 93.49 39.79L93.49 36.76L94.16 36.76L94.16 39.4C94.16 39.67 94.18 39.9 94.22 40.11C94.26 40.31 94.33 40.48 94.43 40.62C94.52 40.76 94.66 40.87 94.82 40.94C94.99 41.01 95.19 41.05 95.44 41.05C95.48 41.05 95.57 41.03 95.73 41.01C95.91 40.97 96.07 40.89 96.22 40.78C96.39 40.66 96.55 40.48 96.68 40.23C96.82 39.98 96.88 39.64 96.88 39.21L96.88 36.76L97.55 36.76L97.55 40.49C97.56 40.84 97.58 41.19 97.6 41.54L96.91 41.54ZM101.58 37.37L100.21 37.37L100.21 40.19C100.21 40.37 100.23 40.51 100.26 40.62C100.29 40.74 100.34 40.82 100.4 40.88C100.46 40.94 100.54 40.99 100.62 41.01C100.7 41.04 100.8 41.05 100.9 41.05C101.01 41.05 101.13 41.03 101.25 41C101.37 40.96 101.49 40.92 101.59 40.86L101.62 41.49C101.21 41.66 100.75 41.71 100.32 41.61C100.18 41.57 100.05 41.51 99.94 41.41C99.81 41.31 99.72 41.17 99.65 41.03C99.58 40.86 99.54 40.65 99.54 40.38L99.54 37.37L98.54 37.37L98.54 36.76L99.54 36.76L99.54 35.41L100.21 35.41L100.21 36.76L101.58 36.76L101.58 37.37ZM103.46 34.92C103.46 35.06 103.41 35.18 103.31 35.27C103.22 35.36 103.1 35.41 102.98 35.41C102.85 35.41 102.73 35.36 102.64 35.27C102.59 35.23 102.55 35.17 102.53 35.11C102.5 35.05 102.49 34.99 102.49 34.92C102.49 34.78 102.54 34.66 102.64 34.57C102.73 34.48 102.85 34.43 102.98 34.43C103.1 34.43 103.21 34.48 103.31 34.57C103.41 34.66 103.46 34.78 103.46 34.92ZM103.31 41.54L102.64 41.54L102.64 36.76L103.31 36.76L103.31 41.54ZM109.72 39.15C109.72 39.51 109.65 39.84 109.53 40.15C109.4 40.45 109.23 40.72 109.01 40.95C108.78 41.17 108.51 41.35 108.21 41.47C107.89 41.6 107.54 41.66 107.19 41.66C106.83 41.66 106.49 41.6 106.18 41.47C105.89 41.35 105.62 41.17 105.39 40.95C105.16 40.72 104.99 40.45 104.87 40.15C104.74 39.83 104.68 39.49 104.68 39.15C104.68 38.79 104.74 38.45 104.87 38.15C104.99 37.84 105.17 37.58 105.39 37.35C105.61 37.13 105.88 36.95 106.18 36.82C106.5 36.7 106.85 36.63 107.19 36.64C107.56 36.64 107.9 36.7 108.21 36.82C108.52 36.95 108.78 37.13 109.01 37.35C109.23 37.58 109.4 37.84 109.53 38.15C109.65 38.45 109.72 38.79 109.72 39.15ZM108.99 39.15C108.99 38.89 108.95 38.64 108.86 38.4C108.78 38.18 108.66 37.97 108.5 37.8C108.34 37.63 108.15 37.49 107.94 37.4C107.7 37.29 107.45 37.24 107.19 37.25C106.92 37.25 106.67 37.3 106.45 37.4C106.23 37.5 106.04 37.63 105.89 37.8C105.73 37.98 105.61 38.18 105.54 38.4C105.45 38.63 105.41 38.88 105.41 39.15C105.41 39.41 105.45 39.66 105.54 39.89C105.62 40.12 105.74 40.33 105.89 40.49C106.04 40.67 106.23 40.8 106.45 40.9C106.67 41 106.92 41.05 107.19 41.05C107.47 41.05 107.72 41 107.94 40.9C108.16 40.8 108.34 40.67 108.5 40.49C108.66 40.33 108.78 40.12 108.86 39.89C108.94 39.66 108.99 39.41 108.99 39.15L108.99 39.15ZM111.57 36.76C111.58 36.89 111.59 37.02 111.6 37.14C111.6 37.27 111.6 37.4 111.6 37.52L111.62 37.52C111.7 37.4 111.79 37.28 111.91 37.17C112.14 36.95 112.43 36.79 112.74 36.7C112.9 36.66 113.06 36.64 113.21 36.64C113.82 36.64 114.27 36.8 114.56 37.12C114.85 37.44 115 37.91 115 38.5L115 41.54L114.33 41.54L114.33 38.89C114.33 38.36 114.24 37.96 114.05 37.67C113.87 37.39 113.53 37.25 113.04 37.25C112.95 37.26 112.85 37.27 112.76 37.29C112.58 37.33 112.41 37.4 112.27 37.51C112.07 37.66 111.91 37.85 111.8 38.07C111.67 38.31 111.6 38.65 111.6 39.09L111.6 41.54L110.93 41.54L110.93 37.81C110.92 37.46 110.91 37.11 110.88 36.76L111.57 36.76ZM42.98 38.73L0 38.73L0 37.38L42.98 37.38L42.98 38.73Z" fill="#3172B9" fill-opacity="1.000000" fill-rule="nonzero"/>
</svg>
