<svg width="67.998291" height="65.999695" viewBox="0 0 67.9983 65.9997" fill="none" xmlns="http://www.w3.org/2000/svg" xmlns:xlink="http://www.w3.org/1999/xlink">
	<desc>
			Created with Pixso.
	</desc>
	<defs/>
	<path id="Vector" d="M50.39 0C40.43 -0.22 32.14 7.63 31.89 17.51L31.77 22.48C31.74 23.83 32.83 24.97 34.19 25C35.56 25.03 36.71 23.94 36.74 22.59L36.86 17.62C37.04 10.47 43.06 4.77 50.26 4.93C57.47 5.09 63.19 11.03 63.02 18.18C62.84 25.33 56.82 31.02 49.62 30.87L18.49 30.19C8.54 29.98 0.25 37.83 0 47.7C-0.25 57.57 7.64 65.78 17.6 65.99C27.56 66.21 35.85 58.36 36.09 48.48L36.22 43.57C36.25 42.21 35.16 41.08 33.79 41.05C32.43 41.02 31.28 42.1 31.25 43.46L31.12 48.38C30.94 55.52 24.93 61.22 17.72 61.06C10.52 60.9 4.79 54.96 4.97 47.81C5.15 40.66 11.16 34.97 18.37 35.12L49.49 35.8C59.45 36.01 67.74 28.16 67.99 18.29C68.23 8.42 60.34 0.22 50.39 0L50.39 0Z" fill="#3172B9" fill-opacity="1.000000" fill-rule="nonzero"/>
</svg>
