<svg width="63.999756" height="63.995728" viewBox="0 0 63.9998 63.9957" fill="none" xmlns="http://www.w3.org/2000/svg" xmlns:xlink="http://www.w3.org/1999/xlink">
	<desc>
			Created with Pixso.
	</desc>
	<defs/>
	<path id="Vector" d="M63.81 15.07L53.33 48.14L53.57 48.92C53.73 49.42 53.79 49.95 53.75 50.47C53.7 50.99 53.56 51.5 53.31 51.97C52.92 52.73 52.31 53.32 51.57 53.7L51.56 53.73L49.19 61.2C48.87 62.21 48.16 63.05 47.22 63.54C46.28 64.03 45.18 64.12 44.17 63.81L32 59.95L19.82 63.81C18.81 64.12 17.71 64.03 16.77 63.54C15.83 63.05 15.12 62.21 14.8 61.2L0.18 15.07C0.02 14.57 -0.04 14.04 0.01 13.52C0.05 12.99 0.2 12.48 0.45 12.02C0.69 11.55 1.02 11.13 1.42 10.8C1.82 10.46 2.29 10.2 2.79 10.05L33.94 0.18C34.95 -0.14 36.05 -0.04 36.99 0.45C37.93 0.93 38.64 1.77 38.96 2.79L39.04 3.03C39.04 3.03 39.05 3.03 39.06 3.03L61.2 10.05C61.7 10.2 62.17 10.46 62.57 10.8C62.97 11.13 63.3 11.55 63.54 12.02C64.04 12.97 64.13 14.05 63.81 15.07ZM48.44 54.74L36.41 58.55L44.97 61.26C45.31 61.37 45.68 61.34 45.99 61.18C46.3 61.01 46.54 60.73 46.65 60.4L48.44 54.74ZM51.03 49.73L36.42 3.59C36.31 3.25 36.07 2.97 35.76 2.81C35.45 2.65 35.08 2.62 34.74 2.72L3.6 12.59C3.26 12.7 2.98 12.93 2.81 13.25C2.73 13.4 2.68 13.57 2.67 13.74C2.65 13.92 2.67 14.1 2.73 14.26L17.34 60.4C17.56 61.1 18.32 61.49 19.02 61.26L31.56 57.29C31.58 57.28 31.61 57.27 31.64 57.27L50.16 51.4C50.5 51.29 50.78 51.06 50.94 50.74C51.11 50.43 51.14 50.06 51.03 49.72L51.03 49.73ZM48.49 32.88L53.44 17.26L42.44 13.77L48.49 32.88ZM61.18 13.24C61.1 13.09 60.99 12.95 60.85 12.84C60.72 12.72 60.56 12.64 60.4 12.59L40.02 6.13L41.46 10.69C41.55 10.7 41.64 10.72 41.73 10.75L54.25 14.72C54.58 14.82 54.89 14.99 55.16 15.22C55.43 15.44 55.65 15.72 55.81 16.03C55.97 16.34 56.07 16.68 56.1 17.03C56.13 17.38 56.09 17.73 55.98 18.06L49.89 37.29L51.93 43.72L61.26 14.26C61.37 13.92 61.34 13.56 61.18 13.24ZM30.94 23.33C31.51 23.63 32.02 24.03 32.44 24.53C32.85 25.02 33.17 25.6 33.36 26.21C33.57 26.86 33.63 27.54 33.54 28.21C33.45 28.88 33.22 29.53 32.85 30.1L29.64 35.12C29.39 35.51 29.04 35.83 28.64 36.05C28.23 36.27 27.78 36.39 27.32 36.39C26.97 36.39 26.61 36.32 26.28 36.18L20.76 33.93C20.13 33.67 19.57 33.28 19.11 32.79C18.65 32.29 18.31 31.69 18.1 31.05C17.91 30.43 17.83 29.78 17.89 29.14C17.95 28.49 18.13 27.87 18.43 27.29C18.72 26.72 19.13 26.21 19.63 25.79C20.12 25.37 20.69 25.06 21.31 24.87C22.38 24.53 23.53 24.57 24.57 24.97C25.2 24.04 26.11 23.35 27.18 23.01C27.8 22.81 28.45 22.74 29.09 22.79C29.74 22.85 30.36 23.03 30.94 23.33ZM30.82 27.02C30.73 26.74 30.59 26.47 30.4 26.25C30.21 26.02 29.97 25.83 29.71 25.7C29.44 25.56 29.16 25.48 28.86 25.45C28.57 25.42 28.27 25.46 27.99 25.55C27.61 25.66 27.28 25.88 27.01 26.16C26.75 26.45 26.56 26.8 26.47 27.18C26.42 27.4 26.31 27.61 26.15 27.78C25.99 27.94 25.8 28.07 25.58 28.14C25.36 28.21 25.13 28.22 24.9 28.17C24.68 28.12 24.47 28.02 24.29 27.87C24 27.61 23.65 27.43 23.27 27.35C22.88 27.27 22.49 27.29 22.12 27.41C21.83 27.5 21.57 27.64 21.34 27.83C21.12 28.02 20.93 28.26 20.8 28.52C20.66 28.79 20.57 29.07 20.55 29.37C20.52 29.66 20.56 29.96 20.65 30.25C20.82 30.8 21.23 31.24 21.77 31.46L27.29 33.72C27.31 33.72 27.33 33.72 27.35 33.72C27.37 33.71 27.38 33.7 27.39 33.68L30.6 28.66C30.92 28.17 31 27.57 30.82 27.02L30.82 27.02ZM44.17 40.93C44.27 41.26 44.31 41.61 44.28 41.96C44.25 42.31 44.15 42.65 43.99 42.96C43.83 43.27 43.61 43.55 43.34 43.77C43.08 44 42.77 44.17 42.43 44.27L21.24 50.99C20.56 51.2 19.83 51.14 19.2 50.81C18.58 50.48 18.1 49.92 17.89 49.25L8.01 18.06C7.9 17.73 7.86 17.38 7.89 17.03C7.92 16.68 8.02 16.34 8.18 16.03C8.34 15.72 8.56 15.44 8.83 15.22C9.1 14.99 9.41 14.82 9.74 14.72L30.94 8C31.62 7.79 32.35 7.85 32.97 8.18C33.6 8.5 34.07 9.07 34.29 9.74L44.17 40.93ZM41.63 41.73L31.75 10.54L21.97 13.64L10.55 17.26L20.43 48.44L41.63 41.73Z" fill="#3172B9" fill-opacity="1.000000" fill-rule="nonzero"/>
</svg>
