<svg width="86.000000" height="64.000305" viewBox="0 0 86 64.0003" fill="none" xmlns="http://www.w3.org/2000/svg" xmlns:xlink="http://www.w3.org/1999/xlink">
	<desc>
			Created with Pixso.
	</desc>
	<defs/>
	<path id="Vector" d="M79.62 20.27C79.62 22.33 79.31 24.35 78.72 26.27L83.86 26.27C85.04 26.27 86 27.22 86 28.4C86 29.58 85.04 30.54 83.86 30.54L77.47 30.54C77.26 30.54 77.07 30.51 76.88 30.46C76 31.97 74.93 33.36 73.69 34.6L44.97 63.37C44.77 63.57 44.53 63.73 44.28 63.83C44.02 63.94 43.74 64 43.46 64C43.18 64 42.9 63.94 42.64 63.83C42.38 63.73 42.15 63.57 41.95 63.37L13.23 34.6C12.19 33.56 11.27 32.42 10.48 31.18C10.31 31.23 10.13 31.25 9.95 31.25L2.13 31.25C1.85 31.25 1.57 31.19 1.31 31.09C1.05 30.98 0.82 30.82 0.62 30.62C0.42 30.42 0.26 30.19 0.16 29.93C0.05 29.67 -0.01 29.39 0 29.11C0 27.93 0.95 26.98 2.13 26.98L8.44 26.98C5.96 19.86 7.56 11.61 13.23 5.93C15.1 4.05 17.33 2.55 19.79 1.53C22.24 0.51 24.88 -0.01 27.54 6.1e-5C32.95 6.1e-5 38.03 2.1 41.85 5.93L43.46 7.54L45.07 5.93C46.94 4.04 49.17 2.55 51.63 1.53C54.08 0.51 56.72 -0.01 59.38 6.1e-5C62.04 -0.01 64.67 0.51 67.13 1.53C69.58 2.55 71.81 4.05 73.69 5.93C75.57 7.81 77.07 10.05 78.09 12.51C79.1 14.97 79.62 17.6 79.62 20.27ZM70.67 8.95C69.19 7.46 67.43 6.28 65.49 5.48C63.55 4.67 61.47 4.26 59.38 4.27C57.28 4.26 55.2 4.67 53.26 5.48C51.32 6.28 49.56 7.46 48.08 8.95L44.96 12.07C44.77 12.27 44.53 12.43 44.27 12.54C44.01 12.64 43.74 12.7 43.46 12.7C43.18 12.7 42.9 12.64 42.64 12.54C42.38 12.43 42.15 12.27 41.95 12.07L38.84 8.95C37.36 7.46 35.6 6.28 33.66 5.48C31.72 4.67 29.64 4.26 27.54 4.27C25.44 4.26 23.36 4.67 21.42 5.48C19.48 6.28 17.72 7.46 16.24 8.95C11.17 14.04 10.23 21.71 13.42 27.76L28.23 27.76L33.53 16.47C33.78 15.95 34.27 15.63 34.89 15.66C35.17 15.67 35.44 15.77 35.66 15.93C35.89 16.1 36.06 16.33 36.16 16.6L44.05 38.48L50.54 20.16C50.63 19.9 50.8 19.66 51.03 19.49C51.26 19.33 51.53 19.23 51.82 19.22C52.1 19.21 52.38 19.28 52.62 19.43C52.86 19.58 53.05 19.79 53.17 20.05L56.35 27.05L73.85 27.05C76.61 21.12 75.55 13.84 70.67 8.95L70.67 8.95ZM16.24 31.58L43.46 58.84L70.67 31.58C71.22 31.03 71.73 30.45 72.19 29.83L55.73 29.83C55.17 29.83 54.37 29.57 54.14 29.06L52.04 24.44L45.4 43.18C45.2 43.75 44.67 44.13 44.06 44.13L44.06 44.13C43.46 44.13 42.93 43.76 42.72 43.19L34.65 20.79L30.42 29.79C30.19 30.29 29.99 30.54 29.43 30.54L15.29 30.54C15.59 30.9 15.91 31.24 16.24 31.58Z" fill="#3172B9" fill-opacity="1.000000" fill-rule="nonzero"/>
</svg>
