<svg width="14.000946" height="17.000610" viewBox="0 0 14.0009 17.0006" fill="none" xmlns="http://www.w3.org/2000/svg" xmlns:xlink="http://www.w3.org/1999/xlink">
	<desc>
			Created with Pixso.
	</desc>
	<defs/>
	<path id="Vector" d="M7.18 16.96C7.06 17.01 6.93 17.01 6.8 16.96C-0.18 14.49 -0.07 8.64 0.01 4.37C0.02 3.91 0.03 3.48 0.03 3.06C0.03 2.9 0.09 2.75 0.2 2.64C0.31 2.53 0.46 2.47 0.61 2.47C3.11 2.47 5 1.73 6.59 0.16C6.64 0.11 6.7 0.07 6.77 0.04C6.84 0.01 6.92 0 6.99 0C7.07 0 7.14 0.01 7.21 0.04C7.28 0.07 7.35 0.11 7.4 0.16C8.98 1.73 10.88 2.47 13.38 2.47C13.53 2.47 13.68 2.53 13.79 2.64C13.9 2.75 13.96 2.9 13.96 3.06C13.96 3.48 13.97 3.91 13.98 4.37C14.06 8.64 14.17 14.49 7.19 16.96L7.18 16.96ZM12.81 4.4C12.81 4.14 12.8 3.89 12.8 3.64C10.46 3.54 8.59 2.82 6.99 1.4C5.39 2.82 3.53 3.54 1.19 3.64L1.18 4.4C1.1 8.69 1.01 13.55 6.99 15.77C12.98 13.55 12.89 8.69 12.81 4.4L12.81 4.4ZM9.83 6.43C9.94 6.54 10 6.69 10 6.85C10 7.01 9.94 7.16 9.83 7.27L6.6 10.56C6.55 10.62 6.48 10.66 6.41 10.69C6.34 10.72 6.27 10.74 6.19 10.74C6.11 10.74 6.04 10.72 5.96 10.69C5.89 10.66 5.83 10.62 5.78 10.56L4.16 8.92C4.05 8.8 3.99 8.65 3.99 8.49C3.99 8.34 4.05 8.19 4.16 8.07C4.22 8.02 4.28 7.97 4.35 7.94C4.42 7.91 4.5 7.9 4.57 7.9C4.65 7.9 4.73 7.91 4.8 7.94C4.87 7.97 4.93 8.02 4.99 8.07L6.19 9.3L9 6.43C9.06 6.37 9.12 6.33 9.19 6.3C9.26 6.27 9.34 6.25 9.42 6.25C9.49 6.25 9.57 6.27 9.64 6.3C9.71 6.33 9.77 6.37 9.83 6.43L9.83 6.43Z" fill="#787878" fill-opacity="1.000000" fill-rule="nonzero"/>
</svg>
