<svg width="17.718994" height="14.000000" viewBox="0 0 17.719 14" fill="none" xmlns="http://www.w3.org/2000/svg" xmlns:xlink="http://www.w3.org/1999/xlink">
	<desc>
			Created with Pixso.
	</desc>
	<defs/>
	<path id="Vector" d="M17.71 1.65C17.06 1.93 16.36 2.12 15.63 2.21C16.38 1.77 16.95 1.08 17.22 0.25C16.51 0.66 15.73 0.95 14.92 1.11C14.25 0.42 13.31 0 12.26 0C10.26 0 8.63 1.58 8.63 3.53C8.63 3.81 8.66 4.08 8.72 4.33C5.7 4.19 3.02 2.78 1.23 0.64C0.92 1.16 0.74 1.77 0.74 2.42C0.74 3.64 1.38 4.73 2.35 5.36C1.78 5.34 1.21 5.19 0.71 4.92L0.71 4.96C0.71 6.68 1.96 8.1 3.62 8.43C3.32 8.51 3 8.55 2.67 8.55C2.43 8.55 2.2 8.53 1.98 8.49C2.44 9.89 3.79 10.91 5.38 10.94C4.13 11.89 2.57 12.46 0.86 12.46C0.57 12.46 0.28 12.44 0 12.41C1.6 13.41 3.51 14 5.57 14C12.25 14 15.91 8.61 15.91 3.94C15.91 3.79 15.91 3.63 15.9 3.48C16.61 2.98 17.23 2.36 17.71 1.65Z" fill="#000000" fill-opacity="1.000000" fill-rule="nonzero"/>
</svg>
